<?xml version="1.0" encoding="utf-8"?>
<!-- Generator: Adobe Illustrator 22.0.1, SVG Export Plug-In . SVG Version: 6.00 Build 0)  -->
<svg version="1.1" id="圖層_1" xmlns="http://www.w3.org/2000/svg" xmlns:xlink="http://www.w3.org/1999/xlink" x="0px" y="0px"
	 viewBox="0 0 50 50" style="enable-background:new 0 0 50 50;" xml:space="preserve">
<style type="text/css">
	.st0{fill:#000000;}
	.st1{clip-path:url(#SVGID_2_);fill:#000000;}
</style>
<g>
	<g>
		<path class="st0" d="M9.9,33.7v1.8c0,2.1-1.1,3.3-3.1,3.3c-2,0-3.1-1.2-3.1-3.3v-6.9c0-2.1,1.1-3.3,3.1-3.3c2,0,3.1,1.2,3.1,3.3
			v1.3h-2v-1.4c0-0.9-0.4-1.3-1.1-1.3c-0.7,0-1.1,0.4-1.1,1.3v7.1c0,0.9,0.4,1.3,1.1,1.3c0.7,0,1.1-0.3,1.1-1.3v-1.9H9.9z"/>
		<path class="st0" d="M11.2,25.4h2.1v13.2h-2.1V25.4z"/>
		<path class="st0" d="M16.6,29v9.6h-1.9V25.4h2.6l2.1,7.9v-7.9h1.8v13.2h-2.1L16.6,29z"/>
		<path class="st0" d="M24.9,31h2.8v1.9h-2.8v3.9h3.6v1.9h-5.7V25.4h5.7v1.9h-3.6V31z"/>
		<path class="st0" d="M34.1,34.8l1.4-9.4h2.9v13.2h-2v-9.5L35,38.6h-2l-1.5-9.3v9.3h-1.8V25.4h2.9L34.1,34.8z"/>
		<path class="st0" d="M46.6,38.6h-2.1l-0.4-2.4h-2.5l-0.4,2.4h-1.9l2.1-13.2h3L46.6,38.6z M41.9,34.4h2l-1-6.7L41.9,34.4z"/>
	</g>
	<g>
		<defs>
			<path id="SVGID_1_" d="M23.3,21.8c5.2,0.2,10.5,0.1,15.5-1.5c2.8-0.8,5.5-1.9,8.2-3v-5.4c0-0.3-0.3-0.6-0.6-0.6H3.6
				c-0.3,0-0.6,0.3-0.6,0.6v12.9c2.1-1.1,5.1-2,9.4-2.5C16,21.9,19.7,21.6,23.3,21.8z"/>
		</defs>
		<clipPath id="SVGID_2_">
			<use xlink:href="#SVGID_1_"  style="overflow:visible;"/>
		</clipPath>
		<path class="st1" d="M46.4,11.3H3.6c-0.3,0-0.6,0.3-0.6,0.6v14.5C3,26.7,3.3,27,3.6,27h42.8c0.3,0,0.6-0.3,0.6-0.6V11.8
			C47,11.5,46.7,11.3,46.4,11.3z M6.9,26.4c0,0.1-0.1,0.1-0.1,0.1H3.9c-0.1,0-0.1-0.1-0.1-0.1v-2.9c0-0.1,0.1-0.1,0.1-0.1h2.9
			c0.1,0,0.1,0.1,0.1,0.1V26.4z M6.9,22.4c0,0.1-0.1,0.1-0.1,0.1H3.9c-0.1,0-0.1-0.1-0.1-0.1v-2.9c0-0.1,0.1-0.1,0.1-0.1h2.9
			c0.1,0,0.1,0.1,0.1,0.1V22.4z M6.9,18.5c0,0.1-0.1,0.1-0.1,0.1H3.9c-0.1,0-0.1-0.1-0.1-0.1v-2.9c0-0.1,0.1-0.1,0.1-0.1h2.9
			c0.1,0,0.1,0.1,0.1,0.1V18.5z M6.9,14.6c0,0.1-0.1,0.1-0.1,0.1H3.9c-0.1,0-0.1-0.1-0.1-0.1v-2.9c0-0.1,0.1-0.1,0.1-0.1h2.9
			c0.1,0,0.1,0.1,0.1,0.1V14.6z M46.2,26.4c0,0.1-0.1,0.1-0.1,0.1h-2.9c-0.1,0-0.1-0.1-0.1-0.1v-2.9c0-0.1,0.1-0.1,0.1-0.1h2.9
			c0.1,0,0.1,0.1,0.1,0.1V26.4z M46.2,22.4c0,0.1-0.1,0.1-0.1,0.1h-2.9c-0.1,0-0.1-0.1-0.1-0.1v-2.9c0-0.1,0.1-0.1,0.1-0.1h2.9
			c0.1,0,0.1,0.1,0.1,0.1V22.4z M46.2,18.5c0,0.1-0.1,0.1-0.1,0.1h-2.9c-0.1,0-0.1-0.1-0.1-0.1v-2.9c0-0.1,0.1-0.1,0.1-0.1h2.9
			c0.1,0,0.1,0.1,0.1,0.1V18.5z M46.2,14.6c0,0.1-0.1,0.1-0.1,0.1h-2.9c-0.1,0-0.1-0.1-0.1-0.1v-2.9c0-0.1,0.1-0.1,0.1-0.1h2.9
			c0.1,0,0.1,0.1,0.1,0.1V14.6z"/>
	</g>
</g>
</svg>
